<svg width="58" height="16" viewBox="0 0 58 16" fill="none" xmlns="http://www.w3.org/2000/svg">
<path d="M8.71655 13.3977C7.7767 13.3982 6.85044 13.1936 6.01571 12.8011C5.18099 12.4086 4.46221 11.8397 3.91984 11.1422C3.37747 10.4447 3.02738 9.63908 2.89901 8.79304C2.77065 7.947 2.86777 7.08532 3.18221 6.28049C3.49664 5.47566 4.01919 4.75122 4.7059 4.16812C5.3926 3.58502 6.22338 3.16032 7.12833 2.92974C8.03328 2.69915 8.98595 2.66944 9.90617 2.8431C10.8264 3.01675 11.6873 3.38869 12.4163 3.92763L14.2239 1.91044C12.9433 0.966727 11.3946 0.371976 9.75735 0.195082C8.12008 0.0181878 6.46116 0.266376 4.97272 0.910915C3.48428 1.55545 2.22723 2.56997 1.34716 3.83695C0.467083 5.10393 0 6.57155 0 8.06981C0 9.56808 0.467083 11.0357 1.34716 12.3027C2.22723 13.5696 3.48428 14.5842 4.97272 15.2287C6.46116 15.8732 8.12008 16.1214 9.75735 15.9445C11.3946 15.7676 12.9433 15.1729 14.2239 14.2292L12.4163 12.2069C11.3697 12.9816 10.0608 13.404 8.71091 13.4028" fill="white"/>
<path d="M39.3426 0.545126H36.479V15.3379H39.3426V0.545126Z" fill="white"/>
<path d="M55.1362 11.2316L46.46 0.545126H43.5962V15.3379H46.46V4.76943L55.1362 15.3379H58V0.545126H55.1362V11.2316Z" fill="white"/>
<path d="M24.7409 2.60342C25.853 2.60499 26.9417 2.89368 27.8802 3.43582C28.8187 3.97797 29.5684 4.75126 30.0419 5.66564C30.5155 6.58001 30.6934 7.59783 30.5549 8.60052C30.4164 9.60322 29.9672 10.5495 29.2597 11.3292H32.6488C33.495 9.70404 33.7088 7.86596 33.2552 6.11596C32.8016 4.36597 31.7074 2.80782 30.1519 1.69673C28.5965 0.585643 26.6719 -0.0125256 24.6934 0.000198894C22.7149 0.0129234 20.7998 0.635797 19.2618 1.76678L21.0637 3.78911C22.1076 3.01771 23.4123 2.59712 24.7578 2.59829" fill="white"/>
<path d="M24.7418 13.2643C23.6288 13.2648 22.5386 12.9774 21.5986 12.4357C20.6587 11.8939 19.9078 11.1202 19.4339 10.2051C18.96 9.28989 18.7825 8.27104 18.9222 7.2676C19.062 6.26416 19.5131 5.3176 20.223 4.53856H16.8339C15.9901 6.16302 15.7778 7.99957 16.2318 9.7479C16.6857 11.4962 17.779 13.0529 19.3329 14.1633C20.8868 15.2737 22.8093 15.8722 24.7861 15.8609C26.7628 15.8496 28.6769 15.2291 30.2153 14.101L28.4134 12.0787C27.3702 12.8471 26.0678 13.2658 24.7249 13.2643" fill="white"/>
</svg>
