<svg width="1440" height="1131" viewBox="0 0 1440 1131" fill="none" xmlns="http://www.w3.org/2000/svg">
<path d="M139.829 937.989C148.515 972.292 172.823 1000.95 209.426 1023.4C246.031 1045.84 294.905 1062.05 352.645 1071.45C468.125 1090.24 618.974 1081.76 777.81 1041.54C936.646 1001.31 1073.35 936.973 1165.97 865.486C1212.28 829.741 1247.55 792.225 1269.06 755.063C1290.56 717.903 1298.3 681.127 1289.62 646.825C1280.93 612.522 1256.62 583.862 1220.02 561.418C1183.41 538.972 1134.54 522.763 1076.8 513.368C961.319 494.578 810.47 503.055 651.634 543.278C492.798 583.501 356.095 647.841 263.477 719.328C217.168 755.073 181.899 792.589 160.389 829.751C138.88 866.911 131.142 903.687 139.829 937.989Z" stroke="url(#paint0_linear_506_192)"/>
<path d="M-120.778 1003.98C-108.138 1053.9 -72.7719 1095.58 -19.5567 1128.21C33.6612 1160.84 104.702 1184.4 188.613 1198.06C356.434 1225.36 575.639 1213.04 806.44 1154.59C1037.24 1096.15 1235.89 1002.65 1370.49 898.765C1437.79 846.819 1489.05 792.29 1520.33 738.262C1551.6 684.236 1562.86 630.743 1550.22 580.83C1537.58 530.918 1502.22 489.233 1449 456.602C1395.78 423.97 1324.74 400.413 1240.83 386.759C1073.01 359.452 853.805 371.774 623.004 430.22C392.204 488.667 193.554 582.16 58.9562 686.049C-8.34327 737.995 -59.6097 792.524 -90.8823 846.552C-122.153 900.578 -133.417 954.071 -120.778 1003.98Z" stroke="url(#paint1_linear_506_192)"/>
<path d="M-437.887 1084.29C-420.438 1153.19 -371.616 1210.73 -298.186 1255.75C-224.754 1300.78 -126.74 1333.28 -10.9833 1352.11C220.528 1389.79 522.909 1372.79 841.277 1292.16C1159.65 1211.54 1433.67 1082.58 1619.35 939.259C1712.19 867.6 1782.93 792.368 1826.08 717.818C1869.23 643.271 1884.78 569.435 1867.33 500.528C1849.88 431.621 1801.06 374.087 1727.63 329.062C1654.2 284.034 1556.18 251.535 1440.43 232.7C1208.92 195.029 906.535 212.029 588.167 292.65C269.799 373.272 -4.22907 502.238 -189.908 645.555C-282.748 717.214 -353.481 792.446 -396.632 866.996C-439.782 941.544 -455.337 1015.38 -437.887 1084.29Z" stroke="url(#paint2_linear_506_192)"/>
<defs>
<linearGradient id="paint0_linear_506_192" x1="1249.8" y1="626.959" x2="253.739" y2="1040.19" gradientUnits="userSpaceOnUse">
<stop stop-color="#484848"/>
<stop offset="0.491388" stop-color="#484848" stop-opacity="0.36"/>
<stop offset="1" stop-color="#484848"/>
</linearGradient>
<linearGradient id="paint1_linear_506_192" x1="1492.15" y1="552.022" x2="44.9455" y2="1152.42" gradientUnits="userSpaceOnUse">
<stop stop-color="#484848"/>
<stop offset="0.491388" stop-color="#484848" stop-opacity="0.36"/>
<stop offset="1" stop-color="#484848"/>
</linearGradient>
<linearGradient id="paint2_linear_506_192" x1="1787.05" y1="460.839" x2="-209.117" y2="1288.98" gradientUnits="userSpaceOnUse">
<stop stop-color="#484848"/>
<stop offset="0.491388" stop-color="#484848" stop-opacity="0.36"/>
<stop offset="1" stop-color="#484848"/>
</linearGradient>
</defs>
</svg>
