<svg width="80" height="88" viewBox="0 0 80 88" fill="none" xmlns="http://www.w3.org/2000/svg">
<g filter="url(#filter0_b_506_416)">
<path d="M0 47.8954C0 25.8618 17.9664 8 40 8C62.0336 8 80 25.8618 80 47.8954C80 69.929 62.0336 87.7908 40 87.7908C17.9664 87.7908 0 69.929 0 47.8954Z" fill="url(#paint0_radial_506_416)"/>
<path d="M0.5 47.8954C0.5 26.1396 18.2408 8.5 40 8.5C61.7592 8.5 79.5 26.1396 79.5 47.8954C79.5 69.6512 61.7592 87.2908 40 87.2908C18.2408 87.2908 0.5 69.6512 0.5 47.8954Z" stroke="url(#paint1_radial_506_416)"/>
<path d="M0.5 47.8954C0.5 26.1396 18.2408 8.5 40 8.5C61.7592 8.5 79.5 26.1396 79.5 47.8954C79.5 69.6512 61.7592 87.2908 40 87.2908C18.2408 87.2908 0.5 69.6512 0.5 47.8954Z" stroke="url(#paint2_radial_506_416)"/>
<path d="M0.5 47.8954C0.5 26.1396 18.2408 8.5 40 8.5C61.7592 8.5 79.5 26.1396 79.5 47.8954C79.5 69.6512 61.7592 87.2908 40 87.2908C18.2408 87.2908 0.5 69.6512 0.5 47.8954Z" stroke="url(#paint3_radial_506_416)"/>
</g>
<g filter="url(#filter1_f_506_416)">
<ellipse cx="39.7435" cy="29.4822" rx="25.3846" ry="16.3673" fill="url(#paint4_radial_506_416)" fill-opacity="0.2"/>
</g>
<path d="M35.0225 35.5555C34.3624 35.5555 33.7294 35.8177 33.2626 36.2845C32.7958 36.7512 32.5336 37.3843 32.5336 38.0444C32.5336 38.7045 32.7958 39.3375 33.2626 39.8043C33.7294 40.271 34.3624 40.5333 35.0225 40.5333H48.9254L45.7073 43.7514C45.2539 44.2208 45.0031 44.8495 45.0087 45.5021C45.0144 46.1547 45.2762 46.7789 45.7376 47.2404C46.1991 47.7018 46.8233 47.9636 47.4759 47.9692C48.1285 47.9749 48.7572 47.724 49.2266 47.2707L56.6933 39.804C57.1599 39.3373 57.422 38.7043 57.422 38.0444C57.422 37.3844 57.1599 36.7515 56.6933 36.2847L49.2266 28.8181C48.997 28.5803 48.7224 28.3907 48.4187 28.2603C48.1151 28.1299 47.7885 28.0612 47.458 28.0583C47.1275 28.0554 46.7998 28.1184 46.4939 28.2436C46.188 28.3687 45.9102 28.5535 45.6765 28.7872C45.4428 29.0209 45.258 29.2988 45.1328 29.6047C45.0077 29.9105 44.9447 30.2383 44.9476 30.5687C44.9505 30.8992 45.0191 31.2258 45.1495 31.5295C45.28 31.8331 45.4696 32.1078 45.7073 32.3373L48.9254 35.5555H35.0225Z" fill="url(#paint5_linear_506_416)"/>
<path d="M44.9781 60.4444C45.6382 60.4444 46.2712 60.1821 46.738 59.7154C47.2048 59.2486 47.467 58.6156 47.467 57.9555C47.467 57.2954 47.2048 56.6623 46.738 56.1956C46.2712 55.7288 45.6382 55.4666 44.9781 55.4666H31.0751L34.2933 52.2485C34.531 52.0189 34.7206 51.7442 34.851 51.4406C34.9815 51.1369 35.0501 50.8103 35.053 50.4799C35.0559 50.1494 34.9929 49.8216 34.8678 49.5158C34.7426 49.2099 34.5578 48.932 34.3241 48.6983C34.0904 48.4646 33.8126 48.2798 33.5067 48.1547C33.2008 48.0295 32.8731 47.9666 32.5426 47.9694C32.2121 47.9723 31.8855 48.041 31.5819 48.1714C31.2782 48.3018 31.0036 48.4915 30.774 48.7292L23.3073 56.1958C22.8407 56.6626 22.5786 57.2955 22.5786 57.9555C22.5786 58.6154 22.8407 59.2484 23.3073 59.7151L30.774 67.1818C31.2434 67.6352 31.8721 67.886 32.5247 67.8804C33.1773 67.8747 33.8015 67.6129 34.263 67.1515C34.7244 66.69 34.9862 66.0658 34.9918 65.4132C34.9975 64.7606 34.7467 64.1319 34.2933 63.6625L31.0751 60.4444H44.9781Z" fill="url(#paint6_linear_506_416)"/>
<defs>
<filter id="filter0_b_506_416" x="-5" y="3" width="90" height="89.7908" filterUnits="userSpaceOnUse" color-interpolation-filters="sRGB">
<feFlood flood-opacity="0" result="BackgroundImageFix"/>
<feGaussianBlur in="BackgroundImage" stdDeviation="2.5"/>
<feComposite in2="SourceAlpha" operator="in" result="effect1_backgroundBlur_506_416"/>
<feBlend mode="normal" in="SourceGraphic" in2="effect1_backgroundBlur_506_416" result="shape"/>
</filter>
<filter id="filter1_f_506_416" x="1.40435" y="0.160334" width="76.6781" height="58.6438" filterUnits="userSpaceOnUse" color-interpolation-filters="sRGB">
<feFlood flood-opacity="0" result="BackgroundImageFix"/>
<feBlend mode="normal" in="SourceGraphic" in2="BackgroundImageFix" result="shape"/>
<feGaussianBlur stdDeviation="6.47727" result="effect1_foregroundBlur_506_416"/>
</filter>
<radialGradient id="paint0_radial_506_416" cx="0" cy="0" r="1" gradientUnits="userSpaceOnUse" gradientTransform="translate(6.69204 8) rotate(47.9449) scale(119.431 86.7751)">
<stop stop-color="white" stop-opacity="0.36"/>
<stop offset="1" stop-color="white" stop-opacity="0"/>
</radialGradient>
<radialGradient id="paint1_radial_506_416" cx="0" cy="0" r="1" gradientUnits="userSpaceOnUse" gradientTransform="translate(-42.5965 16.1628) rotate(35.0407) scale(92.1512 54.3882)">
<stop stop-color="white"/>
<stop offset="1" stop-color="white" stop-opacity="0.06"/>
</radialGradient>
<radialGradient id="paint2_radial_506_416" cx="0" cy="0" r="1" gradientUnits="userSpaceOnUse" gradientTransform="translate(103.421 61.4008) rotate(161.385) scale(66.8428 45.1784)">
<stop stop-color="#8470FF"/>
<stop offset="1" stop-color="#865CFF" stop-opacity="0"/>
</radialGradient>
<radialGradient id="paint3_radial_506_416" cx="0" cy="0" r="1" gradientUnits="userSpaceOnUse" gradientTransform="translate(40.871 -10.2359) rotate(47.2149) scale(44.643 32.0879)">
<stop/>
<stop offset="1" stop-color="white" stop-opacity="0"/>
</radialGradient>
<radialGradient id="paint4_radial_506_416" cx="0" cy="0" r="1" gradientUnits="userSpaceOnUse" gradientTransform="translate(39.7435 13.1149) rotate(90) scale(24.2566 37.625)">
<stop stop-color="white"/>
<stop offset="1" stop-color="white" stop-opacity="0"/>
</radialGradient>
<linearGradient id="paint5_linear_506_416" x1="28.9303" y1="87.3767" x2="80.7254" y2="52.0871" gradientUnits="userSpaceOnUse">
<stop stop-color="#982DEC"/>
<stop offset="0.572917" stop-color="#DC8DF8"/>
<stop offset="0.895833" stop-color="#A9C4F3"/>
</linearGradient>
<linearGradient id="paint6_linear_506_416" x1="28.9303" y1="87.3767" x2="80.7254" y2="52.0871" gradientUnits="userSpaceOnUse">
<stop stop-color="#982DEC"/>
<stop offset="0.572917" stop-color="#DC8DF8"/>
<stop offset="0.895833" stop-color="#A9C4F3"/>
</linearGradient>
</defs>
</svg>
