<svg width="156" height="156" viewBox="0 0 156 156" fill="none" xmlns="http://www.w3.org/2000/svg">
<mask id="mask0_506_505" style="mask-type:alpha" maskUnits="userSpaceOnUse" x="0" y="0" width="156" height="156">
<path d="M8.07161 77.9999C8.07161 39.7855 39.6259 8.66243 78 8.66243C116.374 8.66243 147.928 39.7855 147.928 77.9999C147.928 116.214 116.374 147.337 78 147.337C39.6259 147.337 8.07161 116.214 8.07161 77.9999Z" fill="url(#paint0_radial_506_505)"/>
<path d="M8.07161 77.9999C8.07161 39.7855 39.6259 8.66243 78 8.66243C116.374 8.66243 147.928 39.7855 147.928 77.9999C147.928 116.214 116.374 147.337 78 147.337C39.6259 147.337 8.07161 116.214 8.07161 77.9999Z" stroke="url(#paint1_radial_506_505)" stroke-width="16.1432"/>
<path d="M8.07161 77.9999C8.07161 39.7855 39.6259 8.66243 78 8.66243C116.374 8.66243 147.928 39.7855 147.928 77.9999C147.928 116.214 116.374 147.337 78 147.337C39.6259 147.337 8.07161 116.214 8.07161 77.9999Z" stroke="url(#paint2_radial_506_505)" stroke-width="16.1432"/>
<path d="M8.07161 77.9999C8.07161 39.7855 39.6259 8.66243 78 8.66243C116.374 8.66243 147.928 39.7855 147.928 77.9999C147.928 116.214 116.374 147.337 78 147.337C39.6259 147.337 8.07161 116.214 8.07161 77.9999Z" stroke="url(#paint3_radial_506_505)" stroke-width="16.1432"/>
</mask>
<g mask="url(#mask0_506_505)">
<g style="mix-blend-mode:overlay" filter="url(#filter0_f_506_505)">
<path d="M-0.808594 105.391C12.9254 105.391 21.3469 97.5124 21.5281 85.2272H6.07351C5.71129 90.087 3.08523 92.713 -0.567117 92.713C-4.94389 92.713 -7.81143 88.9701 -7.81143 81.3636C-7.81143 73.7571 -4.94389 70.0142 -0.567117 70.0142C3.11541 70.0142 5.62074 72.6402 6.07351 77.5H21.5281C21.4375 65.4261 12.8349 57.5781 -0.808594 57.5781C-15.9009 57.5781 -24.8356 67.2372 -24.8356 81.4843C-24.8356 95.7315 -15.9009 105.391 -0.808594 105.391ZM45.0645 42.7272H28.4026V104.545H45.0645V42.7272ZM75.7699 105.391C88.6286 105.391 96.8992 99.2329 98.4688 89.5738H83.2557C82.2898 92.1999 79.543 93.6789 76.1321 93.6789C71.1818 93.6789 68.2841 90.419 68.2841 85.9517V85.2272H98.4688V81.3636C98.4688 66.6033 89.4134 57.5781 75.4077 57.5781C61.0398 57.5781 51.8636 67.1164 51.8636 81.4843C51.8636 96.4861 60.919 105.391 75.7699 105.391ZM68.2841 76.0511C68.3746 72.0365 71.695 69.2897 75.7699 69.2897C79.9052 69.2897 83.0444 72.0667 83.1349 76.0511H68.2841ZM118.187 105.27C124.224 105.27 128.782 103.217 131.589 98.0255H131.951V104.545H147.526V72.7911C147.526 64.2187 139.407 57.5781 126.156 57.5781C112.301 57.5781 105.479 64.8224 104.906 73.2741H120.239C120.632 70.4066 122.745 69.0482 125.914 69.0482C128.812 69.0482 130.864 70.3764 130.864 72.7911V72.9119C130.864 75.5983 127.906 76.4435 120.119 77.017C110.55 77.7112 103.095 81.5749 103.095 91.7471C103.095 100.984 109.313 105.27 118.187 105.27ZM123.62 94.7656C120.783 94.7656 118.791 93.3771 118.791 90.7812C118.791 88.3966 120.481 86.5554 124.345 85.9517C127.001 85.5291 129.234 84.9858 130.985 84.2613V88.125C130.985 92.3508 127.393 94.7656 123.62 94.7656ZM155.488 104.545H172.15V80.3977C172.15 75.0852 175.802 71.5838 180.722 71.5838C182.442 71.5838 185.219 71.8554 186.88 72.4289V58.212C185.551 57.8196 184.103 57.5781 182.654 57.5781C177.703 57.5781 173.84 60.4758 172.15 66.9957H171.667V58.1818H155.488V104.545Z" fill="white"/>
</g>
</g>
<defs>
<filter id="filter0_f_506_505" x="-34.8354" y="32.7273" width="231.715" height="82.6633" filterUnits="userSpaceOnUse" color-interpolation-filters="sRGB">
<feFlood flood-opacity="0" result="BackgroundImageFix"/>
<feBlend mode="normal" in="SourceGraphic" in2="BackgroundImageFix" result="shape"/>
<feGaussianBlur stdDeviation="5" result="effect1_foregroundBlur_506_505"/>
</filter>
<radialGradient id="paint0_radial_506_505" cx="0" cy="0" r="1" gradientUnits="userSpaceOnUse" gradientTransform="translate(13.0495 0.590821) rotate(47.8028) scale(232.252 168.832)">
<stop stop-color="white" stop-opacity="0.36"/>
<stop offset="1" stop-color="white" stop-opacity="0"/>
</radialGradient>
<radialGradient id="paint1_radial_506_505" cx="0" cy="0" r="1" gradientUnits="userSpaceOnUse" gradientTransform="translate(-83.0633 16.4291) rotate(34.9065) scale(179.401 105.703)">
<stop stop-color="white"/>
<stop offset="1" stop-color="white" stop-opacity="0.06"/>
</radialGradient>
<radialGradient id="paint2_radial_506_505" cx="0" cy="0" r="1" gradientUnits="userSpaceOnUse" gradientTransform="translate(174.439 73.6994) rotate(143.25) scale(120.177 80.9328)">
<stop stop-color="#F9B016"/>
<stop offset="1" stop-color="#F9B016" stop-opacity="0"/>
</radialGradient>
<radialGradient id="paint3_radial_506_505" cx="0" cy="0" r="1" gradientUnits="userSpaceOnUse" gradientTransform="translate(79.6984 -34.7924) rotate(47.0725) scale(86.8209 62.4272)">
<stop/>
<stop offset="1" stop-color="white" stop-opacity="0"/>
</radialGradient>
</defs>
</svg>
